<?xml version="1.0" standalone="no"?>
<!DOCTYPE svg PUBLIC "-//W3C//DTD SVG 1.1//EN" "http://www.w3.org/Graphics/SVG/1.1/DTD/svg11.dtd" >
<svg xmlns="http://www.w3.org/2000/svg">
<metadata></metadata>
<defs>
<font id="akhand-semibolduploaded_file" horiz-adv-x="937" >
<font-face units-per-em="2048" ascent="1667" descent="-381" />
<missing-glyph horiz-adv-x="342" />
<glyph unicode="&#xfb01;" horiz-adv-x="987" d="M47 1016v160h121v41q0 152 92 232q91 79 258 79q155 0 254 -39v-162q-109 41 -240 41q-93 0 -137 -38q-43 -37 -43 -116v-38h508v-1176h-184v1016h-324v-1016h-184v1016h-121z" />
<glyph unicode="&#xfb02;" horiz-adv-x="987" d="M47 1018v158h121v41q0 153 89 231t257 78q130 0 234 -37h112v-1489h-184v1018h-324v-1018h-184v1018h-121zM352 1171h326v179q-66 22 -148 22q-93 0 -136 -38q-42 -38 -42 -115v-48z" />
<glyph horiz-adv-x="0" />
<glyph horiz-adv-x="682" />
<glyph horiz-adv-x="0" />
<glyph horiz-adv-x="0" />
<glyph unicode="&#xd;" horiz-adv-x="681" />
<glyph unicode=" "  horiz-adv-x="342" />
<glyph unicode="&#x09;" horiz-adv-x="342" />
<glyph unicode="&#xa0;" horiz-adv-x="342" />
<glyph unicode="!" horiz-adv-x="481" d="M127 92q0 111 115 111q110 0 110 -111q0 -106 -110 -106q-115 0 -115 106zM143 1386h197l-16 -1007h-164z" />
<glyph unicode="&#x22;" horiz-adv-x="620" d="M100 1489h158l-8 -430h-141zM362 1489h160l-10 -430h-139z" />
<glyph unicode="#" horiz-adv-x="1128" d="M53 358v146h183l65 379h-156v145h183l63 358h164l-63 -358h266l63 358h164l-63 -358h153v-145h-180l-68 -379h156v-146h-182l-64 -358h-164l64 358h-266l-64 -358h-162l64 358h-156zM397 504h267l67 379h-266z" />
<glyph unicode="$" horiz-adv-x="884" d="M72 326v92h190v-86q0 -168 180 -168q185 0 185 168v20q-1 72 -30 116q-26 41 -97 87l-219 131q-199 124 -199 326v47q0 131 68 217t202 108v134h176v-134q140 -18 209 -105q70 -88 70 -220v-84h-191v80q0 168 -172 168q-174 0 -174 -168v-27q0 -71 32 -118 q30 -44 101 -89l222 -131q190 -118 190 -313v-53q0 -127 -71 -213q-72 -87 -205 -109v-133h-177v131q-144 18 -217 106t-73 220z" />
<glyph unicode="%" horiz-adv-x="1249" d="M47 1073q0 163 66 249q66 85 190 85t190 -85q66 -86 66 -249q0 -164 -66 -251t-190 -87t-190 87t-66 251zM186 1073q0 -207 117 -207q115 0 115 207q0 205 -115 205q-117 0 -117 -205zM285 0l538 1386h142l-539 -1386h-141zM690 315q0 165 66 250q66 86 190 86t190 -86 q66 -85 66 -250q0 -163 -66 -249t-190 -86t-190 86t-66 249zM829 315q0 -204 117 -204q115 0 115 204q0 205 -115 205q-117 0 -117 -205z" />
<glyph unicode="&#x26;" horiz-adv-x="985" d="M117 313v133q0 202 151 259q-149 46 -149 256v112q0 151 93 243q92 91 269 91q178 0 269 -91q92 -92 92 -241v-45h-183v49q0 166 -178 166q-89 0 -135 -44q-45 -43 -45 -124v-127q0 -168 160 -168h205v88h182v-88h90v-157h-90v-312q0 -150 -94 -241q-95 -92 -271 -92 t-271 92t-95 241zM299 309q0 -78 47 -123t137 -45q183 0 183 168v316h-203q-164 0 -164 -170v-146z" />
<glyph unicode="'" horiz-adv-x="366" d="M100 1489h166l-8 -430h-149z" />
<glyph unicode="(" horiz-adv-x="610" d="M141 588q0 264 55 525q54 258 132 433h184q-85 -182 -142 -441q-57 -260 -57 -517q0 -260 57 -519q58 -262 142 -440h-184q-78 173 -132 431q-55 264 -55 528z" />
<glyph unicode=")" horiz-adv-x="610" d="M100 -371q83 179 141 441q56 255 56 518q0 262 -56 517q-56 257 -141 441h183q78 -174 132 -431t54 -527q0 -268 -54 -528q-54 -258 -132 -431h-183z" />
<glyph unicode="*" horiz-adv-x="804" d="M74 1210l32 103l228 -60l14 236h109l14 -234l231 60l31 -105l-219 -86l127 -200l-86 -62l-152 182l-149 -182l-86 62l125 200z" />
<glyph unicode="+" horiz-adv-x="933" d="M82 610v166h297v287h176v-287h297v-166h-297v-286h-176v286h-297z" />
<glyph unicode="," horiz-adv-x="376" d="M12 -246q5 26 21 95q34 148 37 161q6 25 11.5 49.5t8.5 38t4 17.5q15 55 43 82q27 26 82 26q57 0 77 -32q19 -31 1 -82q-15 -40 -85 -189q-63 -134 -83 -166h-117z" />
<glyph unicode="-" horiz-adv-x="620" d="M82 508v160h457v-160h-457z" />
<glyph unicode="." horiz-adv-x="389" d="M82 92q0 111 113 111q112 0 112 -111q0 -106 -112 -106q-113 0 -113 106z" />
<glyph unicode="/" horiz-adv-x="839" d="M49 -193l567 1774h172l-567 -1774h-172z" />
<glyph unicode="0" d="M119 313v760q0 154 87 244t263 90t263 -90t87 -244v-760q0 -151 -87 -242t-263 -91t-263 91t-87 242zM305 317q0 -170 164 -170t164 170v752q0 170 -164 170t-164 -170v-752z" />
<glyph unicode="1" horiz-adv-x="581" d="M18 981v209l242 196h193v-1386h-187v1182z" />
<glyph unicode="2" horiz-adv-x="841" d="M72 952v113q0 155 87 243q87 89 263 89q174 0 261 -89q87 -88 87 -243v-115q-1 -112 -37 -185q-34 -70 -119 -126l-192 -127q-91 -61 -116 -103q-25 -43 -25 -130v-113h495v-166h-682v285q0 126 45 202q45 77 150 144l198 133q59 39 76 80q20 47 21 123v94 q0 168 -162 168q-88 0 -125 -42q-37 -41 -37 -126v-109h-188z" />
<glyph unicode="3" horiz-adv-x="901" d="M82 311v86h186v-82q0 -168 164 -168t164 168v140q0 161 -162 161h-102v164h102q162 0 162 162v119q0 168 -164 168t-164 -168v-74h-186v78q0 155 87 243q87 89 263 89t263 -89q87 -88 87 -243v-113q0 -202 -151 -254q151 -51 151 -237v-150q0 -153 -87 -242t-263 -89 t-263 89t-87 242z" />
<glyph unicode="4" horiz-adv-x="868" d="M45 252v164l375 970h309v-974h131v-160h-131v-252h-186v252h-498zM221 412h330v542l2 353l-127 -355z" />
<glyph unicode="5" horiz-adv-x="907" d="M119 311v58h186v-54q0 -168 164 -168t164 168v273q0 168 -164 168q-159 0 -164 -152v-16h-186v798h665v-163h-479v-381q63 73 197 73q158 0 238 -86q79 -85 79 -237v-281q0 -153 -87 -242t-263 -89t-263 89t-87 242z" />
<glyph unicode="6" horiz-adv-x="888" d="M96 313v318q0 127 35 253q34 124 91 221q54 92 107 163q45 60 103 118h225q-282 -254 -354 -546q69 78 197 78q143 0 221 -87q76 -85 76 -235v-283q0 -151 -87 -242t-264 -91q-174 0 -262 91t-88 242zM285 317q0 -170 161 -170q164 0 164 170v273q0 172 -161 172 q-82 0 -123 -44t-41 -116v-285z" />
<glyph unicode="7" horiz-adv-x="698" d="M10 1225v161h645v-149l-149 -463q-50 -158 -69 -261q-21 -114 -21 -267v-246h-189v258q0 253 97 549l137 418h-451z" />
<glyph unicode="8" horiz-adv-x="927" d="M111 313v140q0 183 135 252q-131 68 -131 249v119q0 153 86 244q86 90 262 90t263 -90t87 -244v-119q0 -183 -131 -252q133 -67 133 -249v-140q0 -151 -88 -242t-264 -91t-264 91t-88 242zM295 313q0 -168 168 -168t168 168v148q0 168 -168 168t-168 -168v-148zM299 944 q0 -168 164 -168q166 0 166 168v131q0 168 -166 168q-164 0 -164 -168v-131z" />
<glyph unicode="9" horiz-adv-x="888" d="M92 791v282q0 154 87 244t261 90q176 0 263 -90q88 -91 88 -244v-315q0 -223 -97 -432t-202 -326h-226q99 99 187 243q91 149 131 296q-64 -70 -183 -70q-153 0 -231 86q-78 85 -78 236zM279 797q0 -172 161 -172q164 0 164 172v274q0 170 -164 170q-161 0 -161 -170 v-274z" />
<glyph unicode=":" horiz-adv-x="389" d="M82 92q0 111 113 111q112 0 112 -111q0 -106 -112 -106q-113 0 -113 106zM82 801q0 110 113 110q112 0 112 -110q0 -107 -112 -107q-113 0 -113 107z" />
<glyph unicode=";" horiz-adv-x="389" d="M12 -246q5 26 21 95q34 148 37 161q6 25 11.5 49.5t8.5 38t4 17.5q15 55 43 82q27 26 82 26q57 0 77 -32q19 -31 1 -82q-15 -40 -85 -189q-63 -134 -83 -166h-117zM82 801q0 110 113 110q112 0 112 -110q0 -107 -112 -107q-113 0 -113 107z" />
<glyph unicode="&#x3c;" horiz-adv-x="933" d="M82 600v186l770 265v-172l-596 -187l596 -184v-174z" />
<glyph unicode="=" horiz-adv-x="933" d="M82 424v166h770v-166h-770zM82 797v166h770v-166h-770z" />
<glyph unicode="&#x3e;" horiz-adv-x="933" d="M82 334v174l596 184l-596 187v172l770 -265v-186z" />
<glyph unicode="?" horiz-adv-x="827" d="M39 999v86q0 151 87 236q88 86 265 86q175 0 263 -86q87 -85 87 -236v-202q0 -297 -278 -318l-8 -186h-162l-10 332h96q178 0 178 180v184q0 164 -166 164q-170 0 -170 -164v-76h-182zM262 92q0 111 115 111q112 0 112 -111q0 -106 -112 -106q-115 0 -115 106z" />
<glyph unicode="@" horiz-adv-x="1757" d="M117 567q0 392 176 603q175 210 588 210q417 0 588 -205t171 -606q0 -287 -90 -411q-90 -125 -262 -125q-107 0 -179 48q-73 48 -95 138q-4 -46 -55 -89q-49 -42 -142 -42q-117 0 -177 57t-60 162v37q0 192 213 264l211 70v135q0 55 -27 84t-98 29q-129 0 -129 -119v-66 h-150v74q0 110 70 177t209 67q276 0 276 -242v-485q0 -83 34 -118q35 -36 107 -36q93 0 138 87t45 304q0 159 -25 278q-23 111 -88 205q-63 92 -184 135q-123 44 -301 44q-180 0 -300 -45t-185 -137t-89 -206t-24 -276q0 -163 25 -275t89 -205q62 -90 184 -136 q120 -45 300 -45h178v-152h-180q-214 0 -364 57q-152 58 -236 165q-87 112 -124 253q-38 146 -38 338zM735 307q0 -90 121 -90q148 0 148 131v191l-152 -47q-61 -21 -89 -52t-28 -92v-41z" />
<glyph unicode="A" horiz-adv-x="935" d="M33 0l309 1386h252l309 -1386h-188l-80 369h-334l-80 -369h-188zM338 532h260l-35 162q-85 404 -96 520q-12 -138 -94 -520z" />
<glyph unicode="B" horiz-adv-x="993" d="M137 0v1386h371q181 0 269 -86q87 -86 87 -237v-102q0 -196 -147 -259q160 -56 160 -258v-120q0 -152 -87 -238q-88 -86 -270 -86h-383zM326 166h188q176 0 176 168v115q0 167 -182 167h-182v-450zM326 782h170q182 0 182 168v105q0 168 -176 168h-176v-441z" />
<glyph unicode="C" horiz-adv-x="956" d="M117 315v756q0 153 93 244q94 92 275 92q182 0 277 -92q94 -91 94 -244v-125h-188v119q0 172 -183 172q-180 0 -180 -172v-743q0 -170 180 -170q183 0 183 170v114h188v-121q0 -152 -94 -243q-95 -92 -277 -92q-181 0 -275 92q-93 92 -93 243z" />
<glyph unicode="D" horiz-adv-x="993" d="M137 0v1386h369q182 0 276 -90q95 -90 95 -241v-723q0 -152 -95 -242q-94 -90 -276 -90h-369zM326 166h180q182 0 182 168v721q0 168 -182 168h-180v-1057z" />
<glyph unicode="E" horiz-adv-x="825" d="M137 0v1386h631v-163h-442v-441h385v-164h-385v-452h442v-166h-631z" />
<glyph unicode="F" horiz-adv-x="770" d="M137 0v1386h602v-163h-411v-475h377v-164h-377v-584h-191z" />
<glyph unicode="G" horiz-adv-x="983" d="M117 313v758q0 153 93 244q94 92 275 92q182 0 277 -92q94 -91 94 -244v-96h-188v90q0 172 -183 172q-180 0 -180 -172v-743q0 -170 176 -170q93 0 140 45t47 125v256h-146v165h332v-743h-180v106q-65 -120 -234 -120q-161 0 -242 90t-81 237z" />
<glyph unicode="H" horiz-adv-x="1054" d="M137 0v1386h191v-620h397v620h190v-1386h-190v596h-397v-596h-191z" />
<glyph unicode="I" horiz-adv-x="466" d="M137 0v1386h191v-1386h-191z" />
<glyph unicode="J" horiz-adv-x="501" d="M10 -342q164 337 164 704v861h-139v163h330v-1021q0 -390 -154 -707h-201z" />
<glyph unicode="K" horiz-adv-x="940" d="M137 0v1386h191v-1386h-191zM399 711l297 675h207l-305 -671l324 -715h-215z" />
<glyph unicode="L" horiz-adv-x="733" d="M137 0v1386h191v-1220h395v-166h-586z" />
<glyph unicode="M" horiz-adv-x="1259" d="M137 0v1386h207l186 -538l99 -307q45 151 100 307l184 538h209v-1386h-182v700l4 336l-108 -336l-113 -335h-186l-113 333l-111 340q4 -116 4 -340v-698h-180z" />
<glyph unicode="N" horiz-adv-x="1060" d="M137 0v1386h205l256 -649q58 -150 93 -245q16 -45 54 -154l15 -43q-23 136 -23 491v600h187v-1386h-203l-256 653l-166 443q27 -163 27 -488v-608h-189z" />
<glyph unicode="O" horiz-adv-x="972" d="M117 315v756q0 153 93 244q94 92 275 92q182 0 277 -92q94 -91 94 -244v-756q0 -152 -94 -243q-95 -92 -277 -92q-181 0 -275 92q-93 92 -93 243zM305 322q0 -170 180 -170q183 0 183 170v743q0 172 -183 172q-180 0 -180 -172v-743z" />
<glyph unicode="P" horiz-adv-x="915" d="M137 0v1386h346q183 0 276 -90t93 -241v-254q0 -155 -84 -243q-84 -89 -242 -89q-43 0 -98 4v168q30 -2 70 -2q166 0 166 158v258q0 168 -183 168h-153v-1223h-191z" />
<glyph unicode="Q" horiz-adv-x="972" d="M117 315v756q0 153 93 244q94 92 275 92q182 0 277 -92q94 -91 94 -244v-756q0 -179 -125 -268l223 -246h-229l-166 183q-40 -4 -74 -4q-181 0 -275 92q-93 92 -93 243zM305 322q0 -170 180 -170q183 0 183 170v743q0 172 -183 172q-180 0 -180 -172v-743z" />
<glyph unicode="R" horiz-adv-x="966" d="M137 0v1386h346q183 0 276 -90t93 -241v-187q0 -217 -174 -295l211 -573h-207l-184 537h-15h-157v-537h-189zM326 705h157q181 0 181 165v185q0 168 -181 168h-157v-518z" />
<glyph unicode="S" horiz-adv-x="884" d="M72 313v99h188v-93q0 -169 180 -169q185 0 185 169v27q-1 69 -30 115q-26 42 -97 88l-222 143q-196 129 -196 328v53q0 154 90 244t272 90q183 0 273 -90t90 -244v-88h-191v84q0 170 -172 170q-174 0 -174 -170v-35q0 -66 32 -113q32 -48 101 -94l224 -143 q188 -124 188 -313v-62q0 -149 -95 -239q-94 -90 -278 -90q-183 0 -275 91q-93 92 -93 242z" />
<glyph unicode="T" horiz-adv-x="727" d="M10 1223v163h707v-163h-258v-1223h-191v1223h-258z" />
<glyph unicode="U" horiz-adv-x="995" d="M127 315v1071h190v-1064q0 -172 181 -172q180 0 180 172v1064h190v-1071q0 -152 -94 -243q-95 -92 -276 -92q-182 0 -277 92q-94 91 -94 243z" />
<glyph unicode="V" horiz-adv-x="927" d="M29 1386h190l152 -692q81 -362 92 -491q17 149 92 491l154 692h190l-317 -1386h-236z" />
<glyph unicode="W" horiz-adv-x="1230" d="M33 1386h174l102 -669q18 -110 29 -208q10 -89 16 -161l4 -53q17 182 56 418l110 673h183l110 -673q17 -102 30 -203q11 -83 19 -160l6 -55q16 190 50 422l102 669h174l-211 -1386h-199l-108 653l-66 445q-18 -171 -63 -445l-109 -653h-198z" />
<glyph unicode="X" horiz-adv-x="835" d="M16 0l299 692l-299 694h201l105 -247q86 -202 98 -265q12 59 96 265l102 247h201l-301 -694l301 -692h-203l-100 246q-91 226 -98 266q-12 -64 -96 -266l-103 -246h-203z" />
<glyph unicode="Y" horiz-adv-x="858" d="M6 1386h195l131 -391q88 -257 100 -336q7 75 98 334l132 393h190l-328 -927v-459h-190v459z" />
<glyph unicode="Z" horiz-adv-x="757" d="M41 0v166l467 1057h-457v163h664v-159l-477 -1061h479v-166h-676z" />
<glyph unicode="[" horiz-adv-x="612" d="M160 -371v1917h370v-153h-198v-1610h198v-154h-370z" />
<glyph unicode="\" horiz-adv-x="839" d="M49 1581h172l567 -1774h-172z" />
<glyph unicode="]" horiz-adv-x="612" d="M82 -217h199v1610h-199v153h371v-1917h-371v154z" />
<glyph unicode="^" horiz-adv-x="759" d="M47 770l219 616h230l217 -616h-178l-95 281q-58 171 -59 206q-1 -26 -62 -206l-94 -281h-178z" />
<glyph unicode="_" horiz-adv-x="948" d="M41 -74h866v-155h-866v155z" />
<glyph unicode="`" horiz-adv-x="716" d="M238 1489h159l82 -223h-112z" />
<glyph unicode="a" horiz-adv-x="901" d="M76 270v60q0 108 57 177q56 68 182 109l283 93v170q0 76 -38 114q-37 37 -126 37t-126 -37q-38 -38 -38 -114v-72h-184v72q0 152 88 234q89 83 260 83q172 0 261 -83t89 -234v-879h-182v119q-17 -49 -76 -91q-56 -40 -155 -40q-143 0 -219 73t-76 209zM260 283 q0 -142 156 -142q94 0 138 44t44 118v244l-205 -64q-73 -24 -103 -60t-30 -95v-45z" />
<glyph unicode="b" horiz-adv-x="927" d="M127 0v1489h186v-414q18 39 77 75q58 36 149 36q133 0 206 -79q74 -80 74 -218v-572q0 -147 -85 -232t-224 -85h-383zM315 166h152q166 0 166 162v540q0 154 -154 154q-72 0 -118 -39t-46 -111v-706z" />
<glyph unicode="c" horiz-adv-x="897" d="M106 309v557q0 153 91 242q89 88 260 88q169 0 258 -88q90 -88 90 -242v-98h-184v98q0 162 -164 162t-164 -162v-557q0 -162 164 -162t164 162v94h184v-94q0 -153 -90 -241q-89 -88 -258 -88q-171 0 -260 88q-91 89 -91 241z" />
<glyph unicode="d" horiz-adv-x="927" d="M106 293v569q0 145 80 228q78 81 213 81q93 0 145 -33t68 -65v416h187v-1489h-185v104q-22 -42 -76 -76q-57 -36 -149 -36q-135 0 -209 81q-74 82 -74 220zM295 311q0 -153 154 -153q71 0 117 39t46 110v551q0 72 -46 111t-117 39q-154 0 -154 -152v-545z" />
<glyph unicode="e" horiz-adv-x="917" d="M106 309v557q0 152 93 242q91 88 260 88q168 0 259 -88t91 -242v-327h-4v-4h-514v-226q0 -164 168 -164t168 164v80h182v-80q0 -153 -91 -241t-259 -88q-169 0 -260 88q-93 90 -93 241zM291 686h336v182q0 164 -168 164t-168 -164v-182z" />
<glyph unicode="f" horiz-adv-x="548" d="M47 1016v160h121v51q0 301 299 301q32 0 98 -8v-156q-32 8 -78 8q-70 0 -101 -34q-32 -35 -32 -109v-53h193v-160h-193v-1016h-186v1016h-121z" />
<glyph unicode="g" horiz-adv-x="897" d="M68 -63q136 -87 331 -87h66q124 0 176 29q51 29 51 88v17q0 51 -25 75q-27 25 -102 25h-125q-264 0 -264 176v33q0 110 113 139q-211 57 -211 287v172q0 145 89 225t269 80q141 0 226 -49q39 131 192 131h33v-176h-70q-46 0 -82 -19q60 -72 60 -192v-172q0 -144 -88 -223 q-90 -81 -263 -82q-98 0 -98 -92q0 -44 27 -62t92 -18h117q148 0 220 -61q70 -60 70 -183v-35q0 -274 -389 -274h-80q-217 0 -335 69v179zM262 719q0 -150 174 -150t174 150v174q0 149 -174 149t-174 -149v-174z" />
<glyph unicode="h" d="M127 0v1489h186v-436q16 43 76 85t156 42q131 0 203 -77q71 -75 71 -210v-893h-186v860q0 158 -152 158q-68 0 -117 -41t-49 -113v-864h-188z" />
<glyph unicode="i" horiz-adv-x="442" d="M111 1399q0 106 112 106q111 0 111 -106q0 -107 -111 -107q-112 0 -112 107zM127 0v1163h188v-1163h-188z" />
<glyph unicode="j" horiz-adv-x="442" d="M-47 -137q29 -4 51 -4q64 0 93 33q30 34 30 106v1165h188v-1165q0 -149 -75 -230q-77 -83 -224 -83q-28 0 -63 6v172zM111 1399q0 106 112 106q111 0 111 -106q0 -107 -111 -107q-112 0 -112 107z" />
<glyph unicode="k" horiz-adv-x="837" d="M127 0v1489h186v-1489h-186zM358 610l248 566h193l-246 -564l262 -612h-201z" />
<glyph unicode="l" horiz-adv-x="442" d="M127 0v1489h188v-1489h-188z" />
<glyph unicode="m" horiz-adv-x="1431" d="M127 0v1176h178v-121q22 49 80 88q61 41 158 41q183 0 245 -150q24 56 90 104q64 46 164 46q129 0 201 -77t72 -210v-897h-187v864q0 156 -151 156q-68 0 -115 -41t-47 -115v-864h-186v864q0 156 -152 156q-69 0 -115 -40q-47 -41 -47 -112v-868h-188z" />
<glyph unicode="n" d="M127 0v1176h178v-121q22 48 82 88q62 41 158 41q131 0 203 -77q71 -75 71 -210v-897h-186v864q0 156 -152 156q-70 0 -117 -40q-49 -41 -49 -112v-868h-188z" />
<glyph unicode="o" horiz-adv-x="915" d="M106 309v557q0 153 92 242q91 88 259 88q171 0 260 -88q90 -88 90 -242v-557q0 -153 -90 -241q-89 -88 -260 -88q-168 0 -259 88q-92 89 -92 241zM293 309q0 -162 164 -162q166 0 166 162v557q0 162 -166 162q-164 0 -164 -162v-557z" />
<glyph unicode="p" horiz-adv-x="927" d="M127 -348v1524h186v-103q18 39 77 75q58 36 149 36q133 0 206 -79q74 -80 74 -218v-580q0 -148 -79 -227q-80 -80 -214 -80q-86 0 -140 28q-53 27 -71 56v-432h-188zM315 311q0 -71 46 -110t118 -39q154 0 154 151v553q0 152 -154 152q-72 0 -118 -39t-46 -111v-557z" />
<glyph unicode="q" horiz-adv-x="927" d="M106 297v561q0 147 88 233q86 85 226 85h379v-1489h-185v419q-18 -38 -73 -74t-148 -36q-135 0 -211 81q-76 80 -76 220zM295 315q0 -153 154 -153q71 0 117 39t46 110v697h-151q-166 0 -166 -164v-529z" />
<glyph unicode="r" horiz-adv-x="573" d="M127 0v1176h178v-152q12 61 68 111q55 49 151 49q22 0 43 -4v-187q-53 8 -82 8q-73 0 -121 -50q-49 -51 -49 -134v-817h-188z" />
<glyph unicode="s" horiz-adv-x="827" d="M70 295v59h182v-61q0 -78 37 -114t123 -36t125 36q38 35 38 112v35q0 97 -106 143l-209 100q-182 84 -182 275v39q0 151 85 232t253 81q169 0 252 -82q84 -82 84 -233v-54h-185v58q0 78 -33 114q-34 37 -118 37q-85 0 -119 -37q-35 -38 -35 -114v-29q0 -102 103 -149 l204 -99q191 -92 191 -268v-47q0 -152 -89 -233q-87 -80 -259 -80q-170 0 -255 81q-87 83 -87 234z" />
<glyph unicode="t" horiz-adv-x="591" d="M16 1016v160h131l48 225h131v-225h227v-160h-227v-721q0 -133 120 -133q69 0 125 28v-172q-51 -26 -153 -26q-279 0 -279 297v727h-123z" />
<glyph unicode="u" d="M117 287v889h188v-863q0 -157 152 -157q68 0 117 41t49 112v867h186v-1176h-178v121q-15 -45 -75 -87t-165 -42q-131 0 -203 80q-71 78 -71 215z" />
<glyph unicode="v" horiz-adv-x="811" d="M29 1176h186l109 -521q25 -129 45 -244q18 -105 28 -178l9 -55q29 212 83 477l107 521h186l-256 -1176h-243z" />
<glyph unicode="w" horiz-adv-x="1290" d="M29 1176h186l88 -510q68 -390 68 -486q6 90 84 486l102 510h178l101 -510q65 -319 82 -486q0 82 69 484l90 512h185l-222 -1176h-231l-80 397q-24 123 -45 246q-23 135 -29 184l-10 64q-28 -207 -86 -494l-78 -397h-231z" />
<glyph unicode="x" horiz-adv-x="768" d="M16 0l269 590l-267 586h195l94 -215q23 -55 41 -102q5 -14 14 -37t12 -31q10 -26 11 -31q12 38 78 201l94 215h193l-271 -586l273 -590h-197l-92 215q-47 109 -78 201q-28 -77 -80 -201l-94 -215h-195z" />
<glyph unicode="y" horiz-adv-x="811" d="M29 1176h184l113 -469q26 -112 48 -226q21 -109 27 -157l9 -52q27 172 84 435l106 469h182l-284 -1184q-74 -305 -355 -305h-80v163h74q77 0 123 55q45 54 45 134q0 24 -10 78z" />
<glyph unicode="z" horiz-adv-x="679" d="M41 0v131l393 885h-383v160h586v-129l-397 -887h399v-160h-598z" />
<glyph unicode="{" horiz-adv-x="669" d="M66 508v160h6q74 0 113 35q40 36 40 102v459q0 130 75 206t206 76h80v-153h-66q-123 0 -123 -129v-402q0 -126 -40 -191q-41 -67 -142 -83q101 -16 142 -83q40 -65 40 -192v-401q0 -129 123 -129h66v-154h-80q-131 0 -206 76q-75 77 -75 207v459q0 65 -40 101t-113 36h-6 z" />
<glyph unicode="|" horiz-adv-x="624" d="M240 -348v2083h145v-2083h-145z" />
<glyph unicode="}" horiz-adv-x="669" d="M86 -217h66q120 0 120 129v401q0 123 41 191q40 67 142 84q-102 17 -142 84q-41 68 -41 190v402q0 129 -120 129h-66v153h80q131 0 206 -76q74 -75 74 -206v-459q0 -66 39 -102q38 -35 113 -35h6v-160h-6q-74 0 -113 -36t-39 -101v-459q0 -132 -74 -207q-75 -76 -206 -76 h-80v154z" />
<glyph unicode="~" horiz-adv-x="933" d="M82 633q0 83 48 136q48 52 138 52q76 0 196 -51t167 -51q59 0 59 63v3t-0.5 4t-1 5.5t-0.5 6.5q0 4 -0.5 8t-1 6.5t-0.5 3.5h160q6 -38 6 -63q0 -84 -48 -136q-48 -53 -138 -53q-69 0 -195 50q-128 51 -168 51q-59 0 -59 -62q0 -7 6 -37h-162q-6 38 -6 64z" />
<glyph unicode="&#xa1;" horiz-adv-x="481" d="M127 1083q0 107 115 107q110 0 110 -107q0 -110 -110 -110q-115 0 -115 110zM143 -211l17 1008h164l16 -1008h-197z" />
<glyph unicode="&#xa2;" horiz-adv-x="897" d="M106 309v557q0 135 69 219t202 105v133h174v-135q121 -22 188 -107q66 -84 66 -215v-98h-184v98q0 162 -164 162t-164 -162v-557q0 -162 164 -162t164 162v94h184v-94q0 -129 -66 -214q-65 -85 -188 -107v-135h-174v133q-134 22 -201 105q-70 87 -70 218z" />
<glyph unicode="&#xa3;" horiz-adv-x="899" d="M86 0v160q145 51 145 280q0 66 -14 164h-129v154h107q-31 203 -31 293q0 155 89 256q88 100 251 100q174 0 259 -94t85 -244v-47h-184v43q0 174 -158 174t-158 -190q0 -93 31 -291h313v-154h-291q13 -91 13 -147q0 -208 -107 -291h567v-166h-788z" />
<glyph unicode="&#xa4;" horiz-adv-x="956" d="M68 348l98 98q-27 61 -27 154v186q0 94 29 158l-98 96l114 115l90 -90q82 43 203 43q123 0 203 -45l92 92l115 -115l-99 -98q27 -66 27 -156v-186q0 -90 -27 -156l99 -96l-115 -115l-90 91q-80 -45 -205 -45t-205 45l-90 -91zM317 600q0 -80 36 -120t124 -40t124 39 t36 121v186q0 82 -36 122t-124 40t-124 -40t-36 -122v-186z" />
<glyph unicode="&#xa5;" horiz-adv-x="929" d="M41 1386h195l133 -395l98 -307q43 151 98 307l131 395h193l-195 -546h174v-148h-227l-55 -155h282v-150h-309v-387h-190v387h-316v150h289l-55 155h-234v148h180z" />
<glyph unicode="&#xa6;" horiz-adv-x="624" d="M240 -348v731h145v-731h-145zM240 1001v734h145v-734h-145z" />
<glyph unicode="&#xa7;" horiz-adv-x="839" d="M84 25v59h176v-61q0 -76 37 -112t121 -36q87 0 124 36q38 36 38 109v23q0 95 -105 141l-205 99q-178 82 -178 256v30h176v-18q0 -55 23 -83q24 -28 80 -52l198 -99q187 -84 187 -260v-34q0 -147 -87 -227q-86 -79 -251 -79t-250 80q-84 79 -84 228zM92 1049v24 q0 147 83 227t247 80q161 0 244 -80q82 -79 82 -227v-53h-177v55q0 77 -33 113q-34 37 -116 37q-84 0 -119 -36q-35 -37 -35 -112v-16q0 -104 103 -148l198 -98q187 -84 187 -256v-37h-176v23q0 50 -24 80t-81 57l-205 98q-178 84 -178 269z" />
<glyph unicode="&#xa8;" horiz-adv-x="716" d="M133 1303v149h152v-149h-152zM432 1303v149h152v-149h-152z" />
<glyph unicode="&#xa9;" horiz-adv-x="1421" d="M90 692q0 163 28 291q27 122 95 222t193 151q124 51 305 51t305 -51t192 -151q70 -102 96 -222q27 -123 27 -291q0 -136 -16 -236q-17 -105 -60 -196q-44 -93 -111 -151q-70 -61 -178 -95t-255 -34t-255 34t-178 95q-69 60 -112 151t-60 196q-16 100 -16 236zM236 692 q0 -144 17 -233q18 -96 65 -179q47 -85 146 -127q98 -42 247 -42t246 42q99 42 146 127q47 83 65 179q18 95 18 233q0 140 -18 235q-19 97 -65 180q-47 85 -146 127q-98 42 -246 42q-149 0 -247 -42q-99 -42 -146 -127q-46 -83 -65 -180q-17 -89 -17 -235zM451 559v272 q0 120 67 186q68 66 197 66t196 -66q68 -66 68 -186v-45h-137v48q0 124 -125 124q-127 0 -127 -124v-277q0 -62 24 -92q25 -31 103 -31q76 0 101 31q24 30 24 94v41h137v-41q0 -252 -264 -252t-264 252z" />
<glyph unicode="&#xaa;" horiz-adv-x="679" d="M72 805v55q0 93 58 144q59 51 175 81l168 41v158q-1 48 -31 73q-27 23 -100 23q-72 0 -101 -23q-30 -24 -30 -73v-78h-129v74q0 219 260 219t260 -217v-692h-129v67q-46 -75 -180 -75q-117 0 -169 55t-52 168zM203 807q0 -65 25 -91q26 -28 102 -28q79 0 111 32t32 93 v197l-141 -35q-70 -17 -100 -44q-29 -26 -29 -77v-47z" />
<glyph unicode="&#xab;" horiz-adv-x="989" d="M96 590l248 375h184l-249 -375l249 -375h-184zM475 590l248 375h184l-250 -375l250 -375h-184z" />
<glyph unicode="&#xac;" horiz-adv-x="929" d="M94 612v168h742v-381h-189v213h-553z" />
<glyph unicode="&#xad;" horiz-adv-x="620" d="M82 508v160h457v-160h-457z" />
<glyph unicode="&#xae;" horiz-adv-x="1017" d="M82 1094q0 229 93 343q92 113 333 113q244 0 336 -111q92 -112 92 -345q0 -227 -92 -340t-338 -113q-242 0 -333 111q-91 110 -91 342zM186 1094q0 -195 63 -276t257 -81q199 0 262 82q63 83 63 275q0 201 -62 281q-63 81 -261 81q-106 0 -167 -20q-64 -21 -98 -70 q-32 -47 -45 -111q-12 -61 -12 -161zM350 836v532h152q192 0 192 -166q0 -110 -71 -147l92 -219h-109l-74 196q-14 -2 -30 -2h-49v-194h-103zM453 1114h36q61 0 81 16q22 17 22 72q0 54 -21 67q-20 13 -69 13h-49v-168z" />
<glyph unicode="&#xaf;" horiz-adv-x="716" d="M139 1325v105h439v-105h-439z" />
<glyph unicode="&#xb0;" horiz-adv-x="751" d="M66 1100q0 136 87 221q88 86 222 86t223 -86q88 -85 88 -221t-88 -221q-89 -86 -223 -86t-222 86q-87 86 -87 221zM217 1100q0 -69 44 -115q43 -45 114 -45q69 0 114 45q46 46 46 115q0 68 -46 114t-114 46q-70 0 -114 -46t-44 -114z" />
<glyph unicode="&#xb1;" horiz-adv-x="933" d="M82 346v164h770v-164h-770zM82 733v164h297v143h176v-143h297v-164h-297v-143h-176v143h-297z" />
<glyph unicode="&#xb2;" horiz-adv-x="651" d="M84 592v184q0 83 35 130q36 48 112 98l142 96q42 28 56 60q13 30 13 85v37q0 98 -114 98q-117 0 -117 -98v-63h-127v65q0 102 62 158q63 57 182 57q118 0 181 -57q62 -56 62 -158v-55q0 -137 -112 -213l-137 -92q-69 -46 -90 -73t-21 -81v-59h360v-119h-487z" />
<glyph unicode="&#xb3;" horiz-adv-x="647" d="M76 799v67h127v-65q0 -101 112 -101q115 0 115 101v88q0 50 -22 75t-89 27h-55v119h55q66 0 89 28q22 26 22 76v64q0 102 -115 102q-112 0 -112 -102v-49h-127v53q0 101 61 159t178 58q120 0 181 -58t61 -159v-68q0 -124 -84 -161q84 -39 84 -164v-90q0 -100 -61 -160 q-60 -59 -181 -59q-115 0 -177 59t-62 160z" />
<glyph unicode="&#xb4;" horiz-adv-x="716" d="M238 1266l81 223h160l-129 -223h-112z" />
<glyph unicode="&#xb5;" d="M117 -348v1524h188v-863q0 -157 152 -157q68 0 117 41t49 112v867h186v-1176h-178v121q-15 -45 -75 -87t-165 -42q-43 0 -86 10v-350h-188z" />
<glyph unicode="&#xb6;" horiz-adv-x="1034" d="M74 870v209q0 141 82 224t243 83h174v-1386h-155v563h-19q-161 0 -243 84q-82 83 -82 223zM741 0v1386h156v-1386h-156z" />
<glyph unicode="&#xb7;" horiz-adv-x="389" d="M82 692q0 111 113 111q112 0 112 -111q0 -106 -112 -106q-113 0 -113 106z" />
<glyph unicode="&#xb8;" horiz-adv-x="716" d="M213 -268q31 -13 84 -13q88 0 88 70q0 66 -98 66h-21l33 157h92l-20 -94q56 -5 94 -38q39 -34 39 -95q0 -78 -51 -120t-136 -42q-61 0 -104 15v94z" />
<glyph unicode="&#xb9;" horiz-adv-x="434" d="M14 1210v148l170 131h144v-899h-127v764z" />
<glyph unicode="&#xba;" horiz-adv-x="671" d="M78 799v481q0 219 258 219t258 -217v-483q0 -219 -258 -219t-258 219zM207 801q0 -54 27 -78q28 -25 102 -25q73 0 101 25t28 78v483q-1 48 -30 73q-26 23 -99 23t-100 -23q-29 -24 -29 -73v-483z" />
<glyph unicode="&#xbb;" horiz-adv-x="989" d="M82 215l250 375l-250 375h184l248 -375l-248 -375h-184zM461 215l250 375l-250 375h184l248 -375l-248 -375h-184z" />
<glyph unicode="&#xbc;" horiz-adv-x="1529" d="M57 1110v145l172 131h144v-899h-129v764zM285 0l721 1386h131l-721 -1386h-131zM868 180v119l291 600h199v-604h96v-115h-96v-180h-125v180h-365zM991 295h242v498z" />
<glyph unicode="&#xbd;" horiz-adv-x="1568" d="M57 1110v145l172 131h144v-899h-129v764zM285 0l721 1386h131l-721 -1386h-131zM975 0v184q0 84 36 132q38 51 111 98l142 94q45 28 57 60t12 85v37q0 98 -114 98q-115 0 -115 -98v-61h-129v63q0 104 62 160q63 57 182 57q118 0 181 -57q62 -56 62 -160v-53 q0 -142 -112 -215l-138 -92q-65 -43 -87 -71q-21 -27 -21 -81v-59h358v-121h-487z" />
<glyph unicode="&#xbe;" horiz-adv-x="1619" d="M68 696v68h129v-66q0 -100 112 -100q65 0 89 27t24 73v88q0 48 -22 75t-87 28h-55v119h55q66 0 87 27q22 28 22 77v64q0 102 -113 102q-112 0 -112 -102v-50h-129v54q0 100 62 158q64 59 179 59q118 0 180 -59t62 -158v-68q0 -123 -84 -162q84 -39 84 -164v-90 q0 -99 -62 -159q-61 -60 -180 -60q-116 0 -179 60q-62 59 -62 159zM408 0l720 1386h132l-721 -1386h-131zM961 180v119l290 600h199v-604h96v-115h-96v-180h-127v180h-362zM1083 295h240v498z" />
<glyph unicode="&#xbf;" horiz-adv-x="827" d="M86 90v203q0 296 279 317l8 187h162l10 -332h-96q-179 0 -179 -180v-185q0 -163 166 -163q170 0 170 163v76h182v-86q0 -150 -87 -235q-88 -86 -265 -86q-175 0 -263 86q-87 85 -87 235zM338 1083q0 107 113 107q114 0 114 -107q0 -110 -114 -110q-113 0 -113 110z" />
<glyph unicode="&#xc0;" horiz-adv-x="935" d="M33 0l309 1386h252l309 -1386h-188l-80 369h-334l-80 -369h-188zM279 1694h159l82 -224h-112zM338 532h260l-35 162q-85 404 -96 520q-12 -138 -94 -520z" />
<glyph unicode="&#xc1;" horiz-adv-x="935" d="M33 0l309 1386h252l309 -1386h-188l-80 369h-334l-80 -369h-188zM338 532h260l-35 162q-85 404 -96 520q-12 -138 -94 -520zM414 1470l82 224h159l-129 -224h-112z" />
<glyph unicode="&#xc2;" horiz-adv-x="935" d="M33 0l309 1386h252l309 -1386h-188l-80 369h-334l-80 -369h-188zM285 1470l108 224h148l108 -224h-104l-78 121l-78 -121h-104zM338 532h260l-35 162q-85 404 -96 520q-12 -138 -94 -520z" />
<glyph unicode="&#xc3;" horiz-adv-x="935" d="M33 0l309 1386h252l309 -1386h-188l-80 369h-334l-80 -369h-188zM236 1495v23q0 71 33 108q35 39 96 39q46 0 107 -32q62 -33 83 -34q33 0 33 46v22h112v-22q0 -72 -33 -109q-35 -39 -96 -39q-55 0 -113 33t-77 33q-33 0 -33 -45v-23h-112zM338 532h260l-35 162 q-85 404 -96 520q-12 -138 -94 -520z" />
<glyph unicode="&#xc4;" horiz-adv-x="935" d="M33 0l309 1386h252l309 -1386h-188l-80 369h-334l-80 -369h-188zM242 1507v150h151v-150h-151zM338 532h260l-35 162q-85 404 -96 520q-12 -138 -94 -520zM541 1507v150h151v-150h-151z" />
<glyph unicode="&#xc5;" horiz-adv-x="935" d="M33 0l309 1386h252l309 -1386h-188l-80 369h-334l-80 -369h-188zM307 1581q0 67 43 110q44 44 117 44t117 -44q43 -43 43 -110t-43 -110q-44 -44 -117 -44t-117 44q-43 43 -43 110zM338 532h260l-35 162q-85 404 -96 520q-12 -138 -94 -520zM399 1581q0 -68 68 -68t68 68 q0 30 -19 49t-49 19t-49 -19t-19 -49z" />
<glyph unicode="&#xc6;" horiz-adv-x="1390" d="M0 0l600 1386h733v-163h-442v-441h385v-164h-385v-452h442v-166h-620v369h-363l-160 -369h-190zM420 532h293v203l4 496l-207 -492z" />
<glyph unicode="&#xc7;" horiz-adv-x="956" d="M117 315v756q0 153 93 244q94 92 275 92q182 0 277 -92q94 -91 94 -244v-125h-188v119q0 172 -183 172q-180 0 -180 -172v-743q0 -170 180 -170q183 0 183 170v114h188v-121q0 -139 -81 -229q-80 -89 -236 -104l-15 -64q56 -5 94 -38q39 -34 39 -95q0 -78 -51 -120 t-135 -42q-61 0 -104 15v94q31 -13 84 -13q88 0 88 70q0 66 -99 66h-20l26 127q-164 11 -246 100q-83 91 -83 233z" />
<glyph unicode="&#xc8;" horiz-adv-x="825" d="M137 0v1386h631v-163h-442v-441h385v-164h-385v-452h442v-166h-631zM264 1694h160l82 -224h-113z" />
<glyph unicode="&#xc9;" horiz-adv-x="825" d="M137 0v1386h631v-163h-442v-441h385v-164h-385v-452h442v-166h-631zM397 1470l82 224h160l-129 -224h-113z" />
<glyph unicode="&#xca;" horiz-adv-x="825" d="M137 0v1386h631v-163h-442v-441h385v-164h-385v-452h442v-166h-631zM268 1470l109 224h147l109 -224h-105l-77 121l-78 -121h-105z" />
<glyph unicode="&#xcb;" horiz-adv-x="825" d="M137 0v1386h631v-163h-442v-441h385v-164h-385v-452h442v-166h-631zM221 1507v150h152v-150h-152zM520 1507v150h152v-150h-152z" />
<glyph unicode="&#xcc;" horiz-adv-x="466" d="M43 1694h160l82 -224h-113zM137 0v1386h191v-1386h-191z" />
<glyph unicode="&#xcd;" horiz-adv-x="466" d="M137 0v1386h191v-1386h-191zM182 1470l82 224h160l-129 -224h-113z" />
<glyph unicode="&#xce;" horiz-adv-x="466" d="M51 1470l109 224h147l109 -224h-105l-78 121l-77 -121h-105zM137 0v1386h191v-1386h-191z" />
<glyph unicode="&#xcf;" horiz-adv-x="466" d="M8 1507v150h152v-150h-152zM137 0v1386h191v-1386h-191zM307 1507v150h152v-150h-152z" />
<glyph unicode="&#xd0;" horiz-adv-x="1015" d="M41 610v160h119v616h368q182 0 277 -90q94 -90 94 -241v-723q0 -152 -94 -242q-95 -90 -277 -90h-368v610h-119zM348 166h180q183 0 183 168v721q0 168 -183 168h-180v-453h189v-160h-189v-444z" />
<glyph unicode="&#xd1;" horiz-adv-x="1060" d="M137 0v1386h205l256 -649q58 -150 93 -245q16 -45 54 -154l15 -43q-23 136 -23 491v600h187v-1386h-203l-256 653l-166 443q27 -163 27 -488v-608h-189zM305 1495v23q0 70 34 108q35 39 95 39q47 0 108 -32q62 -33 83 -34q32 0 32 46v22h113v-22q0 -71 -34 -109 q-34 -39 -95 -39q-55 0 -114 33q-58 33 -76 33q-33 0 -33 -45v-23h-113z" />
<glyph unicode="&#xd2;" horiz-adv-x="972" d="M117 315v756q0 153 93 244q94 92 275 92q182 0 277 -92q94 -91 94 -244v-756q0 -152 -94 -243q-95 -92 -277 -92q-181 0 -275 92q-93 92 -93 243zM297 1694h160l82 -224h-113zM305 322q0 -170 180 -170q183 0 183 170v743q0 172 -183 172q-180 0 -180 -172v-743z" />
<glyph unicode="&#xd3;" horiz-adv-x="972" d="M117 315v756q0 153 93 244q94 92 275 92q182 0 277 -92q94 -91 94 -244v-756q0 -152 -94 -243q-95 -92 -277 -92q-181 0 -275 92q-93 92 -93 243zM305 322q0 -170 180 -170q183 0 183 170v743q0 172 -183 172q-180 0 -180 -172v-743zM434 1470l82 224h160l-129 -224h-113 z" />
<glyph unicode="&#xd4;" horiz-adv-x="972" d="M117 315v756q0 153 93 244q94 92 275 92q182 0 277 -92q94 -91 94 -244v-756q0 -152 -94 -243q-95 -92 -277 -92q-181 0 -275 92q-93 92 -93 243zM303 1470l109 224h147l109 -224h-105l-78 121l-77 -121h-105zM305 322q0 -170 180 -170q183 0 183 170v743q0 172 -183 172 q-180 0 -180 -172v-743z" />
<glyph unicode="&#xd5;" horiz-adv-x="972" d="M117 315v756q0 153 93 244q94 92 275 92q182 0 277 -92q94 -91 94 -244v-756q0 -152 -94 -243q-95 -92 -277 -92q-181 0 -275 92q-93 92 -93 243zM252 1495v23q0 70 34 108q34 39 95 39q46 0 107 -32q62 -33 83 -34q33 0 33 46v22h113v-22q0 -71 -34 -109 q-35 -39 -95 -39q-56 0 -114 33t-77 33q-32 0 -32 -45v-23h-113zM305 322q0 -170 180 -170q183 0 183 170v743q0 172 -183 172q-180 0 -180 -172v-743z" />
<glyph unicode="&#xd6;" horiz-adv-x="972" d="M117 315v756q0 153 93 244q94 92 275 92q182 0 277 -92q94 -91 94 -244v-756q0 -152 -94 -243q-95 -92 -277 -92q-181 0 -275 92q-93 92 -93 243zM258 1507v150h152v-150h-152zM305 322q0 -170 180 -170q183 0 183 170v743q0 172 -183 172q-180 0 -180 -172v-743z M557 1507v150h152v-150h-152z" />
<glyph unicode="&#xd7;" horiz-adv-x="856" d="M82 467l227 227l-225 226l119 118l225 -227l225 227l119 -118l-227 -226l229 -227l-119 -117l-227 228l-227 -228z" />
<glyph unicode="&#xd8;" horiz-adv-x="980" d="M117 0l55 123q-49 71 -49 192v756q0 153 92 245q91 91 277 91q141 0 235 -59l18 38h119l-57 -122q53 -83 53 -193v-756q0 -151 -93 -243q-94 -92 -275 -92q-144 0 -238 61l-16 -41h-121zM305 387l340 789q-43 65 -153 65q-187 0 -187 -172v-682zM336 211q41 -64 156 -64 q184 0 184 170v687z" />
<glyph unicode="&#xd9;" horiz-adv-x="995" d="M127 315v1071h190v-1064q0 -172 181 -172q180 0 180 172v1064h190v-1071q0 -152 -94 -243q-95 -92 -276 -92q-182 0 -277 92q-94 91 -94 243zM311 1694h160l82 -224h-113z" />
<glyph unicode="&#xda;" horiz-adv-x="995" d="M127 315v1071h190v-1064q0 -172 181 -172q180 0 180 172v1064h190v-1071q0 -152 -94 -243q-95 -92 -276 -92q-182 0 -277 92q-94 91 -94 243zM434 1470l82 224h160l-129 -224h-113z" />
<glyph unicode="&#xdb;" horiz-adv-x="995" d="M127 315v1071h190v-1064q0 -172 181 -172q180 0 180 172v1064h190v-1071q0 -152 -94 -243q-95 -92 -276 -92q-182 0 -277 92q-94 91 -94 243zM315 1470l109 224h147l109 -224h-105l-77 121l-78 -121h-105z" />
<glyph unicode="&#xdc;" horiz-adv-x="995" d="M127 315v1071h190v-1064q0 -172 181 -172q180 0 180 172v1064h190v-1071q0 -152 -94 -243q-95 -92 -276 -92q-182 0 -277 92q-94 91 -94 243zM272 1507v150h152v-150h-152zM571 1507v150h152v-150h-152z" />
<glyph unicode="&#xdd;" horiz-adv-x="858" d="M6 1386h195l131 -391q88 -257 100 -336q7 75 98 334l132 393h190l-328 -927v-459h-190v459zM375 1470l82 224h159l-129 -224h-112z" />
<glyph unicode="&#xde;" horiz-adv-x="921" d="M137 0v1386h191v-237h186q164 0 251 -84t87 -229v-283q0 -145 -87 -229t-251 -84h-186v-240h-191zM328 408h172q166 0 166 157v258q0 160 -166 160h-172v-575z" />
<glyph unicode="&#xdf;" horiz-adv-x="1134" d="M127 0v1094q0 170 98 264t269 94q166 0 267 -91t101 -251q0 -75 -43 -174t-43 -164q0 -44 33 -84q32 -39 80 -78q61 -49 94 -79q47 -43 80 -105q33 -63 33 -137q0 -143 -84 -224t-246 -81q-164 0 -245 83q-81 82 -81 226v57h176v-53q0 -77 35 -118q34 -40 117 -40 q78 0 114 37t36 115q0 63 -52 121t-112 96q-63 40 -113 106q-51 68 -51 150q0 77 43 175t43 165q0 86 -50 133t-132 47q-85 0 -133 -49t-48 -145v-1090h-186z" />
<glyph unicode="&#xe0;" horiz-adv-x="901" d="M76 270v60q0 108 57 177q56 68 182 109l283 93v170q0 76 -38 114q-37 37 -126 37t-126 -37q-38 -38 -38 -114v-72h-184v72q0 152 88 234q89 83 260 83q172 0 261 -83t89 -234v-879h-182v119q-17 -49 -76 -91q-56 -40 -155 -40q-143 0 -219 73t-76 209zM248 1489h160 l81 -223h-112zM260 283q0 -142 156 -142q94 0 138 44t44 118v244l-205 -64q-73 -24 -103 -60t-30 -95v-45z" />
<glyph unicode="&#xe1;" horiz-adv-x="901" d="M76 270v60q0 108 57 177q56 68 182 109l283 93v170q0 76 -38 114q-37 37 -126 37t-126 -37q-38 -38 -38 -114v-72h-184v72q0 152 88 234q89 83 260 83q172 0 261 -83t89 -234v-879h-182v119q-17 -49 -76 -91q-56 -40 -155 -40q-143 0 -219 73t-76 209zM260 283 q0 -142 156 -142q94 0 138 44t44 118v244l-205 -64q-73 -24 -103 -60t-30 -95v-45zM379 1266l82 223h160l-129 -223h-113z" />
<glyph unicode="&#xe2;" horiz-adv-x="901" d="M76 270v60q0 108 57 177q56 68 182 109l283 93v170q0 76 -38 114q-37 37 -126 37t-126 -37q-38 -38 -38 -114v-72h-184v72q0 152 88 234q89 83 260 83q172 0 261 -83t89 -234v-879h-182v119q-17 -49 -76 -91q-56 -40 -155 -40q-143 0 -219 73t-76 209zM252 1266l108 223 h148l108 -223h-104l-78 120l-78 -120h-104zM260 283q0 -142 156 -142q94 0 138 44t44 118v244l-205 -64q-73 -24 -103 -60t-30 -95v-45z" />
<glyph unicode="&#xe3;" horiz-adv-x="901" d="M76 270v60q0 108 57 177q56 68 182 109l283 93v170q0 76 -38 114q-37 37 -126 37t-126 -37q-38 -38 -38 -114v-72h-184v72q0 152 88 234q89 83 260 83q172 0 261 -83t89 -234v-879h-182v119q-17 -49 -76 -91q-56 -40 -155 -40q-143 0 -219 73t-76 209zM201 1290v23 q0 71 33 108q34 39 96 39q46 0 107 -32q60 -31 83 -33q33 0 33 45v22h113v-22q0 -71 -34 -109q-34 -39 -95 -39q-55 0 -114 33t-77 33q-33 0 -33 -45v-23h-112zM260 283q0 -142 156 -142q94 0 138 44t44 118v244l-205 -64q-73 -24 -103 -60t-30 -95v-45z" />
<glyph unicode="&#xe4;" horiz-adv-x="901" d="M76 270v60q0 108 57 177q56 68 182 109l283 93v170q0 76 -38 114q-37 37 -126 37t-126 -37q-38 -38 -38 -114v-72h-184v72q0 152 88 234q89 83 260 83q172 0 261 -83t89 -234v-879h-182v119q-17 -49 -76 -91q-56 -40 -155 -40q-143 0 -219 73t-76 209zM219 1303v149h152 v-149h-152zM260 283q0 -142 156 -142q94 0 138 44t44 118v244l-205 -64q-73 -24 -103 -60t-30 -95v-45zM518 1303v149h152v-149h-152z" />
<glyph unicode="&#xe5;" horiz-adv-x="901" d="M76 270v60q0 108 57 177q56 68 182 109l283 93v170q0 76 -38 114q-37 37 -126 37t-126 -37q-38 -38 -38 -114v-72h-184v72q0 152 88 234q89 83 260 83q172 0 261 -83t89 -234v-879h-182v119q-17 -49 -76 -91q-56 -40 -155 -40q-143 0 -219 73t-76 209zM260 283 q0 -142 156 -142q94 0 138 44t44 118v244l-205 -64q-73 -24 -103 -60t-30 -95v-45zM268 1376q0 67 43 110q44 44 117 44t117 -44q43 -43 43 -110q0 -66 -43 -109q-44 -44 -117 -44t-117 44q-43 43 -43 109zM360 1376q0 -67 68 -67t68 67q0 30 -19 49t-49 19t-49 -19t-19 -49 z" />
<glyph unicode="&#xe6;" horiz-adv-x="1404" d="M78 270v60q0 206 239 288l283 93v172q-1 74 -40 111q-38 36 -124 36q-89 0 -126 -37q-38 -38 -38 -114v-72h-184v72q0 152 88 234q89 83 260 83q175 0 258 -92q89 92 254 92q171 0 260 -88q90 -88 90 -242v-331h-518v-226q0 -164 168 -164t168 164v80h182v-80 q0 -153 -90 -241q-89 -88 -260 -88q-174 0 -262 100q-84 -100 -285 -100q-160 0 -241 75q-82 76 -82 215zM262 283q0 -142 158 -142q174 0 180 148v256l-203 -64q-74 -24 -104 -59q-31 -36 -31 -94v-45zM780 686h338v182q0 164 -170 164q-168 0 -168 -164v-182z" />
<glyph unicode="&#xe7;" horiz-adv-x="897" d="M106 309v557q0 153 91 242q89 88 260 88q169 0 258 -88q90 -88 90 -242v-98h-184v98q0 162 -164 162t-164 -162v-557q0 -162 164 -162t164 162v94h184v-94q0 -136 -73 -223q-72 -85 -210 -102l-14 -66q56 -5 94 -38q39 -34 39 -95q0 -78 -51 -120t-135 -42q-61 0 -105 15 v94q29 -13 84 -13q88 0 88 70q0 66 -98 66h-21l27 125q-158 8 -241 95q-83 88 -83 234z" />
<glyph unicode="&#xe8;" horiz-adv-x="917" d="M106 309v557q0 152 93 242q91 88 260 88q168 0 259 -88t91 -242v-327h-4v-4h-514v-226q0 -164 168 -164t168 164v80h182v-80q0 -153 -91 -241t-259 -88q-169 0 -260 88q-93 90 -93 241zM274 1489h160l82 -223h-113zM291 686h336v182q0 164 -168 164t-168 -164v-182z" />
<glyph unicode="&#xe9;" horiz-adv-x="917" d="M106 309v557q0 152 93 242q91 88 260 88q168 0 259 -88t91 -242v-327h-4v-4h-514v-226q0 -164 168 -164t168 164v80h182v-80q0 -153 -91 -241t-259 -88q-169 0 -260 88q-93 90 -93 241zM291 686h336v182q0 164 -168 164t-168 -164v-182zM399 1266l82 223h160l-129 -223 h-113z" />
<glyph unicode="&#xea;" horiz-adv-x="917" d="M106 309v557q0 152 93 242q91 88 260 88q168 0 259 -88t91 -242v-327h-4v-4h-514v-226q0 -164 168 -164t168 164v80h182v-80q0 -153 -91 -241t-259 -88q-169 0 -260 88q-93 90 -93 241zM276 1266l109 223h147l109 -223h-104l-78 120l-78 -120h-105zM291 686h336v182 q0 164 -168 164t-168 -164v-182z" />
<glyph unicode="&#xeb;" horiz-adv-x="917" d="M106 309v557q0 152 93 242q91 88 260 88q168 0 259 -88t91 -242v-327h-4v-4h-514v-226q0 -164 168 -164t168 164v80h182v-80q0 -153 -91 -241t-259 -88q-169 0 -260 88q-93 90 -93 241zM233 1303v149h152v-149h-152zM291 686h336v182q0 164 -168 164t-168 -164v-182z M532 1303v149h152v-149h-152z" />
<glyph unicode="&#xec;" horiz-adv-x="442" d="M29 1489h159l82 -223h-112zM127 0v1176h188v-1176h-188z" />
<glyph unicode="&#xed;" horiz-adv-x="442" d="M127 0v1176h188v-1176h-188zM164 1266l82 223h160l-130 -223h-112z" />
<glyph unicode="&#xee;" horiz-adv-x="442" d="M41 1266l109 223h147l109 -223h-105l-78 120l-78 -120h-104zM127 0v1176h188v-1176h-188z" />
<glyph unicode="&#xef;" horiz-adv-x="442" d="M-4 1303v149h151v-149h-151zM127 0v1176h188v-1176h-188zM295 1303v149h151v-149h-151z" />
<glyph unicode="&#xf0;" horiz-adv-x="880" d="M92 307v305q0 308 305 308q124 0 181 -82q-37 145 -123 292l-224 -106v119l164 80q-54 80 -131 163h221q27 -28 70 -90l207 101v-117l-150 -72q172 -298 172 -577v-324q0 -149 -87 -236t-261 -87q-172 0 -258 87q-86 88 -86 236zM274 311q0 -161 164 -161t164 159v303 q0 158 -164 158t-164 -162v-297z" />
<glyph unicode="&#xf1;" d="M127 0v1176h178v-121q22 48 82 88q62 41 158 41q131 0 203 -77q71 -75 71 -210v-897h-186v864q0 156 -152 156q-70 0 -117 -40q-49 -41 -49 -112v-868h-188zM233 1290v23q0 70 34 108q34 39 95 39q47 0 108 -32q60 -31 83 -33q33 0 33 45v22h112v-22q0 -72 -33 -109 q-35 -39 -96 -39q-55 0 -113 33q-59 33 -77 33q-33 0 -33 -45v-23h-113z" />
<glyph unicode="&#xf2;" horiz-adv-x="915" d="M106 309v557q0 153 92 242q91 88 259 88q171 0 260 -88q90 -88 90 -242v-557q0 -153 -90 -241q-89 -88 -260 -88q-168 0 -259 88q-92 89 -92 241zM274 1489h160l82 -223h-113zM293 309q0 -162 164 -162q166 0 166 162v557q0 162 -166 162q-164 0 -164 -162v-557z" />
<glyph unicode="&#xf3;" horiz-adv-x="915" d="M106 309v557q0 153 92 242q91 88 259 88q171 0 260 -88q90 -88 90 -242v-557q0 -153 -90 -241q-89 -88 -260 -88q-168 0 -259 88q-92 89 -92 241zM293 309q0 -162 164 -162q166 0 166 162v557q0 162 -166 162q-164 0 -164 -162v-557zM401 1266l82 223h160l-129 -223h-113 z" />
<glyph unicode="&#xf4;" horiz-adv-x="915" d="M106 309v557q0 153 92 242q91 88 259 88q171 0 260 -88q90 -88 90 -242v-557q0 -153 -90 -241q-89 -88 -260 -88q-168 0 -259 88q-92 89 -92 241zM272 1266l109 223h147l109 -223h-105l-77 120l-78 -120h-105zM293 309q0 -162 164 -162q166 0 166 162v557q0 162 -166 162 q-164 0 -164 -162v-557z" />
<glyph unicode="&#xf5;" horiz-adv-x="915" d="M106 309v557q0 153 92 242q91 88 259 88q171 0 260 -88q90 -88 90 -242v-557q0 -153 -90 -241q-89 -88 -260 -88q-168 0 -259 88q-92 89 -92 241zM223 1290v23q0 70 34 108q35 39 95 39q47 0 108 -32q60 -31 83 -33q32 0 32 45v22h113v-22q0 -71 -34 -109 q-34 -39 -95 -39q-55 0 -114 33t-76 33q-33 0 -33 -45v-23h-113zM293 309q0 -162 164 -162q166 0 166 162v557q0 162 -166 162q-164 0 -164 -162v-557z" />
<glyph unicode="&#xf6;" horiz-adv-x="915" d="M106 309v557q0 153 92 242q91 88 259 88q171 0 260 -88q90 -88 90 -242v-557q0 -153 -90 -241q-89 -88 -260 -88q-168 0 -259 88q-92 89 -92 241zM231 1303v149h152v-149h-152zM293 309q0 -162 164 -162q166 0 166 162v557q0 162 -166 162q-164 0 -164 -162v-557z M530 1303v149h152v-149h-152z" />
<glyph unicode="&#xf7;" horiz-adv-x="933" d="M82 610v166h770v-166h-770zM362 399q0 103 105 103q104 0 104 -103q0 -104 -104 -104q-105 0 -105 104zM362 987q0 105 105 105q104 0 104 -105q0 -102 -104 -102q-105 0 -105 102z" />
<glyph unicode="&#xf8;" horiz-adv-x="919" d="M106 0l58 113q-51 78 -51 196v557q0 154 90 242q89 88 258 88q131 0 221 -57l18 37h111l-55 -109q55 -79 55 -201v-557q0 -153 -90 -241q-89 -88 -260 -88q-140 0 -223 59l-21 -39h-111zM297 354l299 619q-39 55 -135 55q-164 0 -164 -162v-512zM326 207q34 -60 135 -60 q166 0 166 162v520z" />
<glyph unicode="&#xf9;" d="M117 287v889h188v-863q0 -157 152 -157q68 0 117 41t49 112v867h186v-1176h-178v121q-15 -45 -75 -87t-165 -42q-131 0 -203 80q-71 78 -71 215zM272 1489h160l82 -223h-113z" />
<glyph unicode="&#xfa;" d="M117 287v889h188v-863q0 -157 152 -157q68 0 117 41t49 112v867h186v-1176h-178v121q-15 -45 -75 -87t-165 -42q-131 0 -203 80q-71 78 -71 215zM401 1266l82 223h160l-129 -223h-113z" />
<glyph unicode="&#xfb;" d="M117 287v889h188v-863q0 -157 152 -157q68 0 117 41t49 112v867h186v-1176h-178v121q-15 -45 -75 -87t-165 -42q-131 0 -203 80q-71 78 -71 215zM281 1266l108 223h148l108 -223h-104l-78 120l-78 -120h-104z" />
<glyph unicode="&#xfc;" d="M117 287v889h188v-863q0 -157 152 -157q68 0 117 41t49 112v867h186v-1176h-178v121q-15 -45 -75 -87t-165 -42q-131 0 -203 80q-71 78 -71 215zM244 1303v149h151v-149h-151zM543 1303v149h151v-149h-151z" />
<glyph unicode="&#xfd;" horiz-adv-x="811" d="M29 1176h184l113 -469q26 -112 48 -226q21 -109 27 -157l9 -52q27 172 84 435l106 469h182l-284 -1184q-74 -305 -355 -305h-80v163h74q77 0 123 55q45 54 45 134q0 24 -10 78zM350 1266l82 223h160l-129 -223h-113z" />
<glyph unicode="&#xfe;" horiz-adv-x="927" d="M127 -348v1839h186v-418q18 39 77 75q58 36 149 36q133 0 206 -79q74 -80 74 -218v-580q0 -148 -79 -227q-80 -80 -214 -80q-86 0 -140 28q-53 27 -71 56v-432h-188zM315 311q0 -71 46 -110t118 -39q154 0 154 151v553q0 152 -154 152q-72 0 -118 -39t-46 -111v-557z" />
<glyph unicode="&#xff;" horiz-adv-x="811" d="M29 1176h184l113 -469q26 -112 48 -226q21 -109 27 -157l9 -52q27 172 84 435l106 469h182l-284 -1184q-74 -305 -355 -305h-80v163h74q77 0 123 55q45 54 45 134q0 24 -10 78zM184 1303v149h152v-149h-152zM483 1303v149h152v-149h-152z" />
<glyph unicode="&#x152;" horiz-adv-x="1353" d="M117 336v715q0 151 93 243q94 92 275 92h811v-163h-440v-441h383v-164h-383v-452h440v-166h-811q-181 0 -275 92q-93 91 -93 244zM307 342q0 -170 180 -170h181v1045h-181q-180 0 -180 -173v-702z" />
<glyph unicode="&#x153;" horiz-adv-x="1433" d="M106 309v557q0 153 92 242q91 88 259 88q169 0 260 -88q91 88 258 88q170 0 261 -88t91 -242v-327h-6v-4h-514v-226q0 -164 168 -164t168 164v80h184v-80q0 -153 -91 -241t-261 -88q-167 0 -258 88q-91 -88 -260 -88q-168 0 -259 88q-92 89 -92 241zM293 309 q0 -162 164 -162q166 0 166 162v557q0 162 -166 162q-164 0 -164 -162v-557zM807 686h338v182q0 164 -170 164q-168 0 -168 -164v-182z" />
<glyph unicode="&#x178;" horiz-adv-x="858" d="M6 1386h195l131 -391q88 -257 100 -336q7 75 98 334l132 393h190l-328 -927v-459h-190v459zM207 1507v150h151v-150h-151zM506 1507v150h151v-150h-151z" />
<glyph unicode="&#x2c6;" horiz-adv-x="716" d="M176 1266l109 223h147l109 -223h-105l-78 120l-77 -120h-105z" />
<glyph unicode="&#x2dc;" horiz-adv-x="716" d="M133 1290v23q0 70 34 108q34 39 95 39q47 0 108 -32q60 -31 83 -33q32 0 32 45v22h113v-22q0 -71 -34 -109q-34 -39 -95 -39q-55 0 -114 33q-58 33 -76 33q-33 0 -33 -45v-23h-113z" />
<glyph unicode="&#x2000;" horiz-adv-x="867" />
<glyph unicode="&#x2001;" horiz-adv-x="1735" />
<glyph unicode="&#x2002;" horiz-adv-x="867" />
<glyph unicode="&#x2003;" horiz-adv-x="1735" />
<glyph unicode="&#x2004;" horiz-adv-x="578" />
<glyph unicode="&#x2005;" horiz-adv-x="433" />
<glyph unicode="&#x2006;" horiz-adv-x="289" />
<glyph unicode="&#x2007;" horiz-adv-x="289" />
<glyph unicode="&#x2008;" horiz-adv-x="216" />
<glyph unicode="&#x2009;" horiz-adv-x="347" />
<glyph unicode="&#x200a;" horiz-adv-x="96" />
<glyph unicode="&#x2010;" horiz-adv-x="620" d="M82 508v160h457v-160h-457z" />
<glyph unicode="&#x2011;" horiz-adv-x="620" d="M82 508v160h457v-160h-457z" />
<glyph unicode="&#x2012;" horiz-adv-x="620" d="M82 508v160h457v-160h-457z" />
<glyph unicode="&#x2013;" horiz-adv-x="962" d="M82 508v160h799v-160h-799z" />
<glyph unicode="&#x2014;" horiz-adv-x="1402" d="M82 508v160h1239v-160h-1239z" />
<glyph unicode="&#x2018;" horiz-adv-x="378" d="M63 1089q-18 30 0 74q12 30 79 174q61 131 75 152h109q-7 -34 -37 -163q-34 -145 -39 -169q-24 -98 -115 -98q-54 0 -72 30z" />
<glyph unicode="&#x2019;" horiz-adv-x="378" d="M53 1059q9 46 38 165q10 41 19.5 80t14 60t6.5 27q22 98 113 98q53 0 71 -29q19 -29 2 -76q-19 -51 -77 -172q-62 -129 -78 -153h-109z" />
<glyph unicode="&#x201a;" horiz-adv-x="378" d="M53 -229q5 26 39 167q36 147 39 164q23 99 113 99q53 0 71 -29q19 -29 2 -76q-19 -51 -77 -172q-62 -129 -78 -153h-109z" />
<glyph unicode="&#x201c;" horiz-adv-x="651" d="M62 1089q-17 29 1 74q16 42 76 169q60 128 78 157h102q-17 -83 -77 -334q-22 -96 -109 -96q-53 0 -71 30zM341 1089q-17 29 1 74q15 44 76 173q62 130 78 153h102q-12 -58 -78 -334q-24 -96 -108 -96q-53 0 -71 30z" />
<glyph unicode="&#x201d;" horiz-adv-x="651" d="M53 1059q18 92 78 334q23 96 109 96q52 0 70 -30q17 -29 -1 -75q-18 -47 -76 -170q-63 -132 -77 -155h-103zM332 1059q18 92 78 334q22 96 108 96q53 0 71 -30q17 -29 -1 -75q-18 -44 -78 -170q-61 -128 -76 -155h-102z" />
<glyph unicode="&#x201e;" horiz-adv-x="651" d="M53 -229q14 77 78 333q23 97 109 97q52 0 70 -29q18 -28 -1 -76q-18 -47 -76 -170q-63 -132 -77 -155h-103zM332 -229q14 77 78 333q23 97 108 97q53 0 71 -29q18 -28 -1 -76q-18 -44 -78 -170q-61 -128 -76 -155h-102z" />
<glyph unicode="&#x2022;" horiz-adv-x="528" d="M102 692q0 164 162 164q164 0 164 -164q0 -162 -164 -162q-162 0 -162 162z" />
<glyph unicode="&#x2026;" horiz-adv-x="1148" d="M82 92q0 111 113 111q112 0 112 -111q0 -106 -112 -106q-113 0 -113 106zM461 92q0 111 112 111q113 0 113 -111q0 -106 -113 -106q-112 0 -112 106zM840 92q0 111 112 111q115 0 115 -111q0 -106 -115 -106q-112 0 -112 106z" />
<glyph unicode="&#x202f;" horiz-adv-x="347" />
<glyph unicode="&#x2039;" horiz-adv-x="614" d="M96 590l248 375h188l-249 -375l249 -375h-188z" />
<glyph unicode="&#x203a;" horiz-adv-x="614" d="M82 215l250 375l-250 375h188l248 -375l-248 -375h-188z" />
<glyph unicode="&#x205f;" horiz-adv-x="433" />
<glyph unicode="&#x20ac;" horiz-adv-x="1007" d="M74 485v131h94v144h-94v131h94v180q0 153 93 244q94 92 276 92q181 0 275 -92q93 -91 93 -244v-125h-188v119q0 172 -180 172q-181 0 -181 -172v-174h285v-131h-285v-144h285v-131h-285v-163q0 -170 181 -170q180 0 180 170v114h188v-121q0 -151 -93 -243 q-94 -92 -275 -92q-182 0 -276 92q-93 92 -93 243v170h-94z" />
<glyph unicode="&#x2122;" horiz-adv-x="958" d="M16 1300v86h328v-86h-111v-413h-104v413h-113zM391 887v499h146l65 -237q4 -16 12 -50q2 -9 6 -24t5 -21l6 -24q6 48 24 117l68 239h145v-499h-96v188q0 120 8 242q-22 -113 -45 -195l-51 -180h-109l-49 178l-45 195q6 -79 6 -242v-186h-96z" />
<glyph unicode="&#x25fc;" horiz-adv-x="1177" d="M0 0v1178h1178v-1178h-1178z" />
<glyph unicode="&#xfb03;" horiz-adv-x="1495" d="M47 1016v160h121v41q0 153 91 232t257 79q170 0 277 -60q89 60 231 60q155 0 254 -39v-162q-108 41 -238 41q-95 0 -138 -38q-42 -38 -42 -116v-38h506v-1176h-184v1016h-322v-1016h-184v1016h-324v-1016h-184v1016h-121zM352 1176h324v41q0 67 18 122q-95 31 -166 31 q-94 0 -135 -38t-41 -118v-38z" />
<glyph unicode="&#xfb04;" horiz-adv-x="1495" d="M47 1016v160h121v41q0 153 91 232t257 79q168 0 275 -60q85 58 231 58q129 0 233 -37h113v-1489h-184v1018h-324v-1018h-184v1018h-324v-1018h-184v1016h-121zM352 1176h324v41q0 72 22 122q-91 31 -170 31q-94 0 -135 -38t-41 -118v-38zM860 1171h326v179 q-66 22 -148 22q-93 0 -136 -38q-42 -38 -42 -115v-48z" />
</font>
</defs>
</svg>
