<svg xmlns:rdf="http://www.w3.org/1999/02/22-rdf-syntax-ns#" xmlns="http://www.w3.org/2000/svg" height="25" width="30" version="1.1" xmlns:cc="http://creativecommons.org/ns#" xmlns:dc="http://purl.org/dc/elements/1.1/">
 <path d="m30 1.65v-0.385c0-0.35-0.105-0.641-0.35-0.875-0.2-0.233-0.5-0.36-0.9-0.385h-27.4c-0.39 0-0.68 0.128-0.915 0.385-0.233 0.256-0.36 0.55-0.385 0.875v0.385c0 0.36 0.128 0.65 0.385 0.88s0.55 0.36 0.875 0.39h27.5c0.35 0 0.655-0.128 0.91-0.385 0.257-0.257 0.375-0.55 0.35-0.875zm0 11.1v-0.42c0-0.327-0.117-0.62-0.35-0.875-0.234-0.257-0.536-0.375-0.91-0.35h-27.5c-0.35 0-0.641 0.117-0.875 0.35-0.173 0-0.3 0.3-0.325 0.7v0.42c0 0.327 0.128 0.62 0.385 0.875 0.257 0.257 0.55 0.375 0.875 0.35h27.5c0.35 0 0.655-0.117 0.91-0.35 0.257-0.234 0.375-0.525 0.35-0.875zm0 11v-0.385c0-0.35-0.117-0.641-0.35-0.875-0.234-0.234-0.536-0.361-0.91-0.385h-27.5c-0.35 0-0.641 0.128-0.875 0.385-0.173 0.2-0.3 0.5-0.325 0.9v0.385c0 0.35 0.128 0.655 0.385 0.91 0.257 0.257 0.55 0.375 0.875 0.35h27.5c0.35 0 0.655-0.117 0.91-0.35 0.257-0.234 0.375-0.536 0.35-0.91z"/>
</svg>
