<svg xmlns="http://www.w3.org/2000/svg" width="16" height="16">
  <g>
    <path
       d="m 14.7,13.4 -2.4,0 0,-3.8 -2.55,0 0,3.8 -2.4,0 0,-9.8 2.4,0 0,3.3 2.55,0 0,-3.3 2.4,0 0,9.8"
       style="fill:#d33"/>
    <path
       d="m 5.1,9 c 0.9,0 1.2,-0.2 1.2,-1 0,-0.8 -0.26,-1 -1.2,-1 l -1.4,0 0,2 1.36,0 z m 0,-4 c 0.36,0 0.6,0 0.7,-0.1 C 6,4.7 6,4.4 6,4.1 6,3.8 6,3.5 5.75,3.4 5.6,3.3 5.4,3.3 5.1,3.3 l -1.4,0 0,1.7 1.4,0 z M 5.9,1.3 c 1,0 1.6,0.2 2,0.7 0.4,0.4 0.6,1 0.6,1.8 0,1 -0.3,1.5 -1.2,2.2 1,0.4 1.5,1.2 1.5,2.4 0,1 -0.4,1.9 -1,2.3 -0.4,0.3 -1.1,0.4 -2,0.4 l -4.5,0 0,-9.8 4.6,0"
       style="fill:#000"/>
  </g>
</svg>
