<svg xmlns="http://www.w3.org/2000/svg" height="16" width="16">
  <path fill="#e22" d="m14.7,13.4-2.4,0,0-3.8-2.55,0,0,3.8-2.4,0,0-9.8,2.4,0,0,3.3,2.55,0,0-3.3,2.4,0,0,9.8"/>
  <path fill="#000" d="m5.1,9c0.9,0,1.2-0.2,1.2-1s-0.26-1-1.2-1h-1.4v2h1.36zm0-4c0.36,0,0.6,0,0.7-0.1,0.2-0.2,0.2-0.5,0.2-0.8s0-0.6-0.25-0.7c-0.15-0.1-0.35-0.1-0.65-0.1h-1.4v1.7h1.4zm0.8-3.7c1,0,1.6,0.2,2,0.7,0.4,0.4,0.6,1,0.6,1.8,0,1-0.3,1.5-1.2,2.2,1,0.4,1.5,1.2,1.5,2.4,0,1-0.4,1.9-1,2.3-0.4,0.3-1.1,0.4-2,0.4h-4.5v-9.8h4.6"/>
</svg>
